<mxfile host="app.diagrams.net" modified="2024-01-16T23:59:07.266Z" agent="Mozilla/5.0 (Windows NT 10.0; Win64; x64) AppleWebKit/537.36 (KHTML, like Gecko) Chrome/119.0.0.0 Safari/537.36 OPR/105.0.0.0" etag="G6MMmO921UjtYKOAVBII" version="22.1.20" type="github">
  <diagram name="PÃ¡gina-1" id="G7pyi02I1FUGQk0OtAj_">
    <mxGraphModel dx="1393" dy="758" grid="1" gridSize="10" guides="1" tooltips="1" connect="1" arrows="1" fold="1" page="1" pageScale="1" pageWidth="827" pageHeight="1169" math="0" shadow="0">
      <root>
        <mxCell id="0" />
        <mxCell id="1" parent="0" />
        <mxCell id="Uv2YM8LM3oBVtjhpaVrm-7" style="edgeStyle=orthogonalEdgeStyle;rounded=0;orthogonalLoop=1;jettySize=auto;html=1;exitX=0.5;exitY=1;exitDx=0;exitDy=0;entryX=0.5;entryY=0;entryDx=0;entryDy=0;" edge="1" parent="1" source="Uv2YM8LM3oBVtjhpaVrm-1" target="Uv2YM8LM3oBVtjhpaVrm-2">
          <mxGeometry relative="1" as="geometry" />
        </mxCell>
        <mxCell id="Uv2YM8LM3oBVtjhpaVrm-1" value="Inicio" style="ellipse;whiteSpace=wrap;html=1;aspect=fixed;" vertex="1" parent="1">
          <mxGeometry x="360" y="20" width="80" height="80" as="geometry" />
        </mxCell>
        <mxCell id="Uv2YM8LM3oBVtjhpaVrm-10" style="edgeStyle=orthogonalEdgeStyle;rounded=0;orthogonalLoop=1;jettySize=auto;html=1;exitX=0.5;exitY=1;exitDx=0;exitDy=0;entryX=0.5;entryY=0;entryDx=0;entryDy=0;" edge="1" parent="1" source="Uv2YM8LM3oBVtjhpaVrm-2" target="Uv2YM8LM3oBVtjhpaVrm-8">
          <mxGeometry relative="1" as="geometry" />
        </mxCell>
        <mxCell id="Uv2YM8LM3oBVtjhpaVrm-2" value="Llenar informacion de Producto" style="rounded=0;whiteSpace=wrap;html=1;" vertex="1" parent="1">
          <mxGeometry x="340" y="120" width="120" height="60" as="geometry" />
        </mxCell>
        <mxCell id="Uv2YM8LM3oBVtjhpaVrm-9" style="edgeStyle=orthogonalEdgeStyle;rounded=0;orthogonalLoop=1;jettySize=auto;html=1;exitX=1;exitY=1;exitDx=0;exitDy=0;exitPerimeter=0;entryX=0;entryY=0.5;entryDx=0;entryDy=0;" edge="1" parent="1" source="Uv2YM8LM3oBVtjhpaVrm-3" target="Uv2YM8LM3oBVtjhpaVrm-8">
          <mxGeometry relative="1" as="geometry" />
        </mxCell>
        <mxCell id="Uv2YM8LM3oBVtjhpaVrm-3" value="Logistica" style="shape=umlActor;verticalLabelPosition=bottom;verticalAlign=top;html=1;outlineConnect=0;" vertex="1" parent="1">
          <mxGeometry x="230" y="120" width="30" height="60" as="geometry" />
        </mxCell>
        <mxCell id="Uv2YM8LM3oBVtjhpaVrm-6" style="edgeStyle=orthogonalEdgeStyle;rounded=0;orthogonalLoop=1;jettySize=auto;html=1;exitX=1;exitY=0.3333333333333333;exitDx=0;exitDy=0;exitPerimeter=0;entryX=-0.05;entryY=0.333;entryDx=0;entryDy=0;entryPerimeter=0;" edge="1" parent="1" source="Uv2YM8LM3oBVtjhpaVrm-3" target="Uv2YM8LM3oBVtjhpaVrm-2">
          <mxGeometry relative="1" as="geometry" />
        </mxCell>
        <mxCell id="Uv2YM8LM3oBVtjhpaVrm-12" style="edgeStyle=orthogonalEdgeStyle;rounded=0;orthogonalLoop=1;jettySize=auto;html=1;exitX=0.5;exitY=1;exitDx=0;exitDy=0;entryX=0.5;entryY=0;entryDx=0;entryDy=0;" edge="1" parent="1" source="Uv2YM8LM3oBVtjhpaVrm-8" target="Uv2YM8LM3oBVtjhpaVrm-11">
          <mxGeometry relative="1" as="geometry" />
        </mxCell>
        <mxCell id="Uv2YM8LM3oBVtjhpaVrm-8" value="Llenar informacion de Tarea" style="rounded=0;whiteSpace=wrap;html=1;" vertex="1" parent="1">
          <mxGeometry x="340" y="200" width="120" height="60" as="geometry" />
        </mxCell>
        <mxCell id="Uv2YM8LM3oBVtjhpaVrm-14" style="edgeStyle=orthogonalEdgeStyle;rounded=0;orthogonalLoop=1;jettySize=auto;html=1;exitX=0.5;exitY=1;exitDx=0;exitDy=0;entryX=0.5;entryY=0;entryDx=0;entryDy=0;" edge="1" parent="1" source="Uv2YM8LM3oBVtjhpaVrm-11" target="Uv2YM8LM3oBVtjhpaVrm-13">
          <mxGeometry relative="1" as="geometry" />
        </mxCell>
        <mxCell id="Uv2YM8LM3oBVtjhpaVrm-11" value="Tareas disponibles" style="rounded=0;whiteSpace=wrap;html=1;" vertex="1" parent="1">
          <mxGeometry x="340" y="280" width="120" height="60" as="geometry" />
        </mxCell>
        <mxCell id="Uv2YM8LM3oBVtjhpaVrm-16" style="edgeStyle=orthogonalEdgeStyle;rounded=0;orthogonalLoop=1;jettySize=auto;html=1;exitX=0.5;exitY=1;exitDx=0;exitDy=0;entryX=0.5;entryY=0;entryDx=0;entryDy=0;" edge="1" parent="1" source="Uv2YM8LM3oBVtjhpaVrm-13" target="Uv2YM8LM3oBVtjhpaVrm-15">
          <mxGeometry relative="1" as="geometry" />
        </mxCell>
        <mxCell id="Uv2YM8LM3oBVtjhpaVrm-13" value="Asignar tarea" style="rounded=0;whiteSpace=wrap;html=1;" vertex="1" parent="1">
          <mxGeometry x="340" y="370" width="120" height="60" as="geometry" />
        </mxCell>
        <mxCell id="Uv2YM8LM3oBVtjhpaVrm-18" style="edgeStyle=orthogonalEdgeStyle;rounded=0;orthogonalLoop=1;jettySize=auto;html=1;exitX=0.5;exitY=1;exitDx=0;exitDy=0;entryX=0.5;entryY=0;entryDx=0;entryDy=0;" edge="1" parent="1" source="Uv2YM8LM3oBVtjhpaVrm-15" target="Uv2YM8LM3oBVtjhpaVrm-17">
          <mxGeometry relative="1" as="geometry" />
        </mxCell>
        <mxCell id="Uv2YM8LM3oBVtjhpaVrm-15" value="Llenar informacion de calibracion" style="rounded=0;whiteSpace=wrap;html=1;" vertex="1" parent="1">
          <mxGeometry x="340" y="460" width="120" height="60" as="geometry" />
        </mxCell>
        <mxCell id="Uv2YM8LM3oBVtjhpaVrm-20" style="edgeStyle=orthogonalEdgeStyle;rounded=0;orthogonalLoop=1;jettySize=auto;html=1;exitX=0.5;exitY=1;exitDx=0;exitDy=0;entryX=0.5;entryY=0;entryDx=0;entryDy=0;" edge="1" parent="1" source="Uv2YM8LM3oBVtjhpaVrm-17" target="Uv2YM8LM3oBVtjhpaVrm-19">
          <mxGeometry relative="1" as="geometry" />
        </mxCell>
        <mxCell id="Uv2YM8LM3oBVtjhpaVrm-17" value="Certificacion" style="rounded=0;whiteSpace=wrap;html=1;" vertex="1" parent="1">
          <mxGeometry x="340" y="550" width="120" height="60" as="geometry" />
        </mxCell>
        <mxCell id="Uv2YM8LM3oBVtjhpaVrm-22" style="edgeStyle=orthogonalEdgeStyle;rounded=0;orthogonalLoop=1;jettySize=auto;html=1;exitX=0.5;exitY=1;exitDx=0;exitDy=0;entryX=0.5;entryY=0;entryDx=0;entryDy=0;" edge="1" parent="1" source="Uv2YM8LM3oBVtjhpaVrm-19" target="Uv2YM8LM3oBVtjhpaVrm-21">
          <mxGeometry relative="1" as="geometry" />
        </mxCell>
        <mxCell id="Uv2YM8LM3oBVtjhpaVrm-19" value="Llenar infomarcion de certificacion" style="rounded=0;whiteSpace=wrap;html=1;" vertex="1" parent="1">
          <mxGeometry x="340" y="640" width="120" height="60" as="geometry" />
        </mxCell>
        <mxCell id="Uv2YM8LM3oBVtjhpaVrm-29" style="edgeStyle=orthogonalEdgeStyle;rounded=0;orthogonalLoop=1;jettySize=auto;html=1;exitX=0.5;exitY=1;exitDx=0;exitDy=0;entryX=0.5;entryY=0;entryDx=0;entryDy=0;" edge="1" parent="1" source="Uv2YM8LM3oBVtjhpaVrm-21" target="Uv2YM8LM3oBVtjhpaVrm-28">
          <mxGeometry relative="1" as="geometry" />
        </mxCell>
        <mxCell id="Uv2YM8LM3oBVtjhpaVrm-21" value="Validacion" style="rounded=0;whiteSpace=wrap;html=1;" vertex="1" parent="1">
          <mxGeometry x="340" y="730" width="120" height="60" as="geometry" />
        </mxCell>
        <mxCell id="Uv2YM8LM3oBVtjhpaVrm-24" style="edgeStyle=orthogonalEdgeStyle;rounded=0;orthogonalLoop=1;jettySize=auto;html=1;exitX=0.25;exitY=0.1;exitDx=0;exitDy=0;exitPerimeter=0;entryX=1;entryY=0.5;entryDx=0;entryDy=0;" edge="1" parent="1" source="Uv2YM8LM3oBVtjhpaVrm-23" target="Uv2YM8LM3oBVtjhpaVrm-13">
          <mxGeometry relative="1" as="geometry" />
        </mxCell>
        <mxCell id="Uv2YM8LM3oBVtjhpaVrm-25" style="edgeStyle=orthogonalEdgeStyle;rounded=0;orthogonalLoop=1;jettySize=auto;html=1;exitX=0;exitY=0.3333333333333333;exitDx=0;exitDy=0;exitPerimeter=0;entryX=1;entryY=0.5;entryDx=0;entryDy=0;" edge="1" parent="1" source="Uv2YM8LM3oBVtjhpaVrm-23" target="Uv2YM8LM3oBVtjhpaVrm-15">
          <mxGeometry relative="1" as="geometry" />
        </mxCell>
        <mxCell id="Uv2YM8LM3oBVtjhpaVrm-26" style="edgeStyle=orthogonalEdgeStyle;rounded=0;orthogonalLoop=1;jettySize=auto;html=1;exitX=0;exitY=1;exitDx=0;exitDy=0;exitPerimeter=0;entryX=1;entryY=0.5;entryDx=0;entryDy=0;" edge="1" parent="1" source="Uv2YM8LM3oBVtjhpaVrm-23" target="Uv2YM8LM3oBVtjhpaVrm-17">
          <mxGeometry relative="1" as="geometry" />
        </mxCell>
        <mxCell id="Uv2YM8LM3oBVtjhpaVrm-27" style="edgeStyle=orthogonalEdgeStyle;rounded=0;orthogonalLoop=1;jettySize=auto;html=1;exitX=0;exitY=1;exitDx=0;exitDy=0;exitPerimeter=0;entryX=1;entryY=0.5;entryDx=0;entryDy=0;" edge="1" parent="1" source="Uv2YM8LM3oBVtjhpaVrm-23" target="Uv2YM8LM3oBVtjhpaVrm-19">
          <mxGeometry relative="1" as="geometry" />
        </mxCell>
        <mxCell id="Uv2YM8LM3oBVtjhpaVrm-23" value="Tecnico" style="shape=umlActor;verticalLabelPosition=bottom;verticalAlign=top;html=1;outlineConnect=0;" vertex="1" parent="1">
          <mxGeometry x="650" y="490" width="30" height="60" as="geometry" />
        </mxCell>
        <mxCell id="Uv2YM8LM3oBVtjhpaVrm-34" style="edgeStyle=orthogonalEdgeStyle;rounded=0;orthogonalLoop=1;jettySize=auto;html=1;exitX=0.5;exitY=1;exitDx=0;exitDy=0;entryX=0.5;entryY=0;entryDx=0;entryDy=0;" edge="1" parent="1" source="Uv2YM8LM3oBVtjhpaVrm-28" target="Uv2YM8LM3oBVtjhpaVrm-33">
          <mxGeometry relative="1" as="geometry" />
        </mxCell>
        <mxCell id="Uv2YM8LM3oBVtjhpaVrm-28" value="Entrega" style="rounded=0;whiteSpace=wrap;html=1;" vertex="1" parent="1">
          <mxGeometry x="340" y="820" width="120" height="60" as="geometry" />
        </mxCell>
        <mxCell id="Uv2YM8LM3oBVtjhpaVrm-31" style="edgeStyle=orthogonalEdgeStyle;rounded=0;orthogonalLoop=1;jettySize=auto;html=1;exitX=0;exitY=0.3333333333333333;exitDx=0;exitDy=0;exitPerimeter=0;" edge="1" parent="1" source="Uv2YM8LM3oBVtjhpaVrm-30" target="Uv2YM8LM3oBVtjhpaVrm-21">
          <mxGeometry relative="1" as="geometry" />
        </mxCell>
        <mxCell id="Uv2YM8LM3oBVtjhpaVrm-32" style="edgeStyle=orthogonalEdgeStyle;rounded=0;orthogonalLoop=1;jettySize=auto;html=1;exitX=0;exitY=1;exitDx=0;exitDy=0;exitPerimeter=0;entryX=1;entryY=0.5;entryDx=0;entryDy=0;" edge="1" parent="1" source="Uv2YM8LM3oBVtjhpaVrm-30" target="Uv2YM8LM3oBVtjhpaVrm-28">
          <mxGeometry relative="1" as="geometry" />
        </mxCell>
        <mxCell id="Uv2YM8LM3oBVtjhpaVrm-30" value="Calidad" style="shape=umlActor;verticalLabelPosition=bottom;verticalAlign=top;html=1;outlineConnect=0;" vertex="1" parent="1">
          <mxGeometry x="590" y="750" width="30" height="60" as="geometry" />
        </mxCell>
        <mxCell id="Uv2YM8LM3oBVtjhpaVrm-33" value="" style="ellipse;whiteSpace=wrap;html=1;aspect=fixed;" vertex="1" parent="1">
          <mxGeometry x="360" y="910" width="80" height="80" as="geometry" />
        </mxCell>
        <mxCell id="Uv2YM8LM3oBVtjhpaVrm-37" value="Calibracion (general)" style="text;html=1;strokeColor=none;fillColor=none;align=center;verticalAlign=middle;whiteSpace=wrap;rounded=0;" vertex="1" parent="1">
          <mxGeometry x="560" y="45" width="60" height="30" as="geometry" />
        </mxCell>
        <mxCell id="Uv2YM8LM3oBVtjhpaVrm-40" value="Admin" style="shape=umlActor;verticalLabelPosition=bottom;verticalAlign=top;html=1;outlineConnect=0;" vertex="1" parent="1">
          <mxGeometry x="1185" width="30" height="60" as="geometry" />
        </mxCell>
        <mxCell id="Uv2YM8LM3oBVtjhpaVrm-41" value="Producto" style="swimlane;fontStyle=0;childLayout=stackLayout;horizontal=1;startSize=30;horizontalStack=0;resizeParent=1;resizeParentMax=0;resizeLast=0;collapsible=1;marginBottom=0;whiteSpace=wrap;html=1;" vertex="1" parent="1">
          <mxGeometry x="1130" y="150" width="140" height="360" as="geometry" />
        </mxCell>
        <mxCell id="Uv2YM8LM3oBVtjhpaVrm-42" value="Equipo" style="text;strokeColor=none;fillColor=none;align=left;verticalAlign=middle;spacingLeft=4;spacingRight=4;overflow=hidden;points=[[0,0.5],[1,0.5]];portConstraint=eastwest;rotatable=0;whiteSpace=wrap;html=1;" vertex="1" parent="Uv2YM8LM3oBVtjhpaVrm-41">
          <mxGeometry y="30" width="140" height="30" as="geometry" />
        </mxCell>
        <mxCell id="Uv2YM8LM3oBVtjhpaVrm-46" value="Cliente" style="text;strokeColor=none;fillColor=none;align=left;verticalAlign=middle;spacingLeft=4;spacingRight=4;overflow=hidden;points=[[0,0.5],[1,0.5]];portConstraint=eastwest;rotatable=0;whiteSpace=wrap;html=1;" vertex="1" parent="Uv2YM8LM3oBVtjhpaVrm-41">
          <mxGeometry y="60" width="140" height="30" as="geometry" />
        </mxCell>
        <mxCell id="Uv2YM8LM3oBVtjhpaVrm-47" value="ID_producto_cliente" style="text;strokeColor=none;fillColor=none;align=left;verticalAlign=middle;spacingLeft=4;spacingRight=4;overflow=hidden;points=[[0,0.5],[1,0.5]];portConstraint=eastwest;rotatable=0;whiteSpace=wrap;html=1;" vertex="1" parent="Uv2YM8LM3oBVtjhpaVrm-41">
          <mxGeometry y="90" width="140" height="30" as="geometry" />
        </mxCell>
        <mxCell id="Uv2YM8LM3oBVtjhpaVrm-48" value="Marca" style="text;strokeColor=none;fillColor=none;align=left;verticalAlign=middle;spacingLeft=4;spacingRight=4;overflow=hidden;points=[[0,0.5],[1,0.5]];portConstraint=eastwest;rotatable=0;whiteSpace=wrap;html=1;" vertex="1" parent="Uv2YM8LM3oBVtjhpaVrm-41">
          <mxGeometry y="120" width="140" height="30" as="geometry" />
        </mxCell>
        <mxCell id="Uv2YM8LM3oBVtjhpaVrm-49" value="Modelo" style="text;strokeColor=none;fillColor=none;align=left;verticalAlign=middle;spacingLeft=4;spacingRight=4;overflow=hidden;points=[[0,0.5],[1,0.5]];portConstraint=eastwest;rotatable=0;whiteSpace=wrap;html=1;" vertex="1" parent="Uv2YM8LM3oBVtjhpaVrm-41">
          <mxGeometry y="150" width="140" height="30" as="geometry" />
        </mxCell>
        <mxCell id="Uv2YM8LM3oBVtjhpaVrm-60" value="Serie" style="text;strokeColor=none;fillColor=none;align=left;verticalAlign=middle;spacingLeft=4;spacingRight=4;overflow=hidden;points=[[0,0.5],[1,0.5]];portConstraint=eastwest;rotatable=0;whiteSpace=wrap;html=1;" vertex="1" parent="Uv2YM8LM3oBVtjhpaVrm-41">
          <mxGeometry y="180" width="140" height="30" as="geometry" />
        </mxCell>
        <mxCell id="Uv2YM8LM3oBVtjhpaVrm-50" value="Departamento" style="text;strokeColor=none;fillColor=none;align=left;verticalAlign=middle;spacingLeft=4;spacingRight=4;overflow=hidden;points=[[0,0.5],[1,0.5]];portConstraint=eastwest;rotatable=0;whiteSpace=wrap;html=1;" vertex="1" parent="Uv2YM8LM3oBVtjhpaVrm-41">
          <mxGeometry y="210" width="140" height="30" as="geometry" />
        </mxCell>
        <mxCell id="Uv2YM8LM3oBVtjhpaVrm-61" value="Orden de Compra" style="text;strokeColor=none;fillColor=none;align=left;verticalAlign=middle;spacingLeft=4;spacingRight=4;overflow=hidden;points=[[0,0.5],[1,0.5]];portConstraint=eastwest;rotatable=0;whiteSpace=wrap;html=1;" vertex="1" parent="Uv2YM8LM3oBVtjhpaVrm-41">
          <mxGeometry y="240" width="140" height="30" as="geometry" />
        </mxCell>
        <mxCell id="Uv2YM8LM3oBVtjhpaVrm-52" value="Fecha Ingreso" style="text;strokeColor=none;fillColor=none;align=left;verticalAlign=middle;spacingLeft=4;spacingRight=4;overflow=hidden;points=[[0,0.5],[1,0.5]];portConstraint=eastwest;rotatable=0;whiteSpace=wrap;html=1;" vertex="1" parent="Uv2YM8LM3oBVtjhpaVrm-41">
          <mxGeometry y="270" width="140" height="30" as="geometry" />
        </mxCell>
        <mxCell id="Uv2YM8LM3oBVtjhpaVrm-62" value="Fecha Facturacion" style="text;strokeColor=none;fillColor=none;align=left;verticalAlign=middle;spacingLeft=4;spacingRight=4;overflow=hidden;points=[[0,0.5],[1,0.5]];portConstraint=eastwest;rotatable=0;whiteSpace=wrap;html=1;" vertex="1" parent="Uv2YM8LM3oBVtjhpaVrm-41">
          <mxGeometry y="300" width="140" height="30" as="geometry" />
        </mxCell>
        <mxCell id="Uv2YM8LM3oBVtjhpaVrm-53" value="Estatus" style="text;strokeColor=none;fillColor=none;align=left;verticalAlign=middle;spacingLeft=4;spacingRight=4;overflow=hidden;points=[[0,0.5],[1,0.5]];portConstraint=eastwest;rotatable=0;whiteSpace=wrap;html=1;" vertex="1" parent="Uv2YM8LM3oBVtjhpaVrm-41">
          <mxGeometry y="330" width="140" height="30" as="geometry" />
        </mxCell>
        <mxCell id="Uv2YM8LM3oBVtjhpaVrm-68" value="Cliente" style="swimlane;fontStyle=0;childLayout=stackLayout;horizontal=1;startSize=30;horizontalStack=0;resizeParent=1;resizeParentMax=0;resizeLast=0;collapsible=1;marginBottom=0;whiteSpace=wrap;html=1;" vertex="1" parent="1">
          <mxGeometry x="1360" y="150" width="140" height="150" as="geometry" />
        </mxCell>
        <mxCell id="Uv2YM8LM3oBVtjhpaVrm-69" value="Nombre" style="text;strokeColor=none;fillColor=none;align=left;verticalAlign=middle;spacingLeft=4;spacingRight=4;overflow=hidden;points=[[0,0.5],[1,0.5]];portConstraint=eastwest;rotatable=0;whiteSpace=wrap;html=1;" vertex="1" parent="Uv2YM8LM3oBVtjhpaVrm-68">
          <mxGeometry y="30" width="140" height="30" as="geometry" />
        </mxCell>
        <mxCell id="Uv2YM8LM3oBVtjhpaVrm-70" value="telefono" style="text;strokeColor=none;fillColor=none;align=left;verticalAlign=middle;spacingLeft=4;spacingRight=4;overflow=hidden;points=[[0,0.5],[1,0.5]];portConstraint=eastwest;rotatable=0;whiteSpace=wrap;html=1;" vertex="1" parent="Uv2YM8LM3oBVtjhpaVrm-68">
          <mxGeometry y="60" width="140" height="30" as="geometry" />
        </mxCell>
        <mxCell id="Uv2YM8LM3oBVtjhpaVrm-71" value="Correo" style="text;strokeColor=none;fillColor=none;align=left;verticalAlign=middle;spacingLeft=4;spacingRight=4;overflow=hidden;points=[[0,0.5],[1,0.5]];portConstraint=eastwest;rotatable=0;whiteSpace=wrap;html=1;" vertex="1" parent="Uv2YM8LM3oBVtjhpaVrm-68">
          <mxGeometry y="90" width="140" height="30" as="geometry" />
        </mxCell>
        <mxCell id="Uv2YM8LM3oBVtjhpaVrm-72" value="ubicacion" style="text;strokeColor=none;fillColor=none;align=left;verticalAlign=middle;spacingLeft=4;spacingRight=4;overflow=hidden;points=[[0,0.5],[1,0.5]];portConstraint=eastwest;rotatable=0;whiteSpace=wrap;html=1;" vertex="1" parent="Uv2YM8LM3oBVtjhpaVrm-68">
          <mxGeometry y="120" width="140" height="30" as="geometry" />
        </mxCell>
        <mxCell id="Uv2YM8LM3oBVtjhpaVrm-75" value="Tarea" style="swimlane;fontStyle=0;childLayout=stackLayout;horizontal=1;startSize=30;horizontalStack=0;resizeParent=1;resizeParentMax=0;resizeLast=0;collapsible=1;marginBottom=0;whiteSpace=wrap;html=1;" vertex="1" parent="1">
          <mxGeometry x="930" y="150" width="140" height="120" as="geometry" />
        </mxCell>
        <mxCell id="Uv2YM8LM3oBVtjhpaVrm-76" value="producto" style="text;strokeColor=none;fillColor=none;align=left;verticalAlign=middle;spacingLeft=4;spacingRight=4;overflow=hidden;points=[[0,0.5],[1,0.5]];portConstraint=eastwest;rotatable=0;whiteSpace=wrap;html=1;" vertex="1" parent="Uv2YM8LM3oBVtjhpaVrm-75">
          <mxGeometry y="30" width="140" height="30" as="geometry" />
        </mxCell>
        <mxCell id="Uv2YM8LM3oBVtjhpaVrm-77" value="Item 2" style="text;strokeColor=none;fillColor=none;align=left;verticalAlign=middle;spacingLeft=4;spacingRight=4;overflow=hidden;points=[[0,0.5],[1,0.5]];portConstraint=eastwest;rotatable=0;whiteSpace=wrap;html=1;" vertex="1" parent="Uv2YM8LM3oBVtjhpaVrm-75">
          <mxGeometry y="60" width="140" height="30" as="geometry" />
        </mxCell>
        <mxCell id="Uv2YM8LM3oBVtjhpaVrm-78" value="Item 3" style="text;strokeColor=none;fillColor=none;align=left;verticalAlign=middle;spacingLeft=4;spacingRight=4;overflow=hidden;points=[[0,0.5],[1,0.5]];portConstraint=eastwest;rotatable=0;whiteSpace=wrap;html=1;" vertex="1" parent="Uv2YM8LM3oBVtjhpaVrm-75">
          <mxGeometry y="90" width="140" height="30" as="geometry" />
        </mxCell>
      </root>
    </mxGraphModel>
  </diagram>
</mxfile>
